<mxfile host="Electron" modified="INSERT_MODIFIED" agent="Mozilla/5.0 (Windows NT 10.0; Win64; x64) AppleWebKit/537.36 (KHTML, like Gecko) draw.io/23.0.2 Chrome/120.0.6099.109 Electron/28.1.0 Safari/537.36" etag="UcM-qdOotcxloVswMzpP" version="23.0.2" type="device">
  <diagram name="Page-1" id="INSERT_ID">
    <mxGraphModel dx="1434" dy="836" grid="1" gridSize="10" guides="1" tooltips="1" connect="1" arrows="1" fold="1" page="1" pageScale="1" pageWidth="827" pageHeight="1169" math="1" shadow="0">
      <root>
        <mxCell id="0" />
        <mxCell id="1" parent="0" />
        INSERT_MX_CELLS
      </root>
    </mxGraphModel>
  </diagram>
</mxfile>
